{
    "asset" : {
        "generator" : "Khronos glTF Blender I/O v3.2.43",
        "version" : "2.0"
    },
    "scene" : 0,
    "scenes" : [
        {
            "name" : "Scene",
            "nodes" : [
                0,
                1,
                2,
                3,
                4,
                5
            ]
        }
    ],
    "nodes" : [
        {
            "mesh" : 0,
            "name" : "Torus",
            "rotation" : [
                0.7071068286895752,
                0,
                0,
                0.7071068286895752
            ],
            "scale" : [
                2.0117359161376953,
                2.0117359161376953,
                2.0117359161376953
            ],
            "translation" : [
                2.0117299556732178,
                -2.239227294921875,
                0
            ]
        },
        {
            "mesh" : 1,
            "name" : "Sphere",
            "scale" : [
                19.618932723999023,
                15.933831214904785,
                19.618932723999023
            ],
            "translation" : [
                0,
                7.079587936401367,
                0
            ]
        },
        {
            "mesh" : 2,
            "name" : "Torus.001",
            "rotation" : [
                0.7071068286895752,
                0,
                0,
                0.7071068286895752
            ],
            "scale" : [
                2.1975553035736084,
                2.1975553035736084,
                2.1975553035736084
            ],
            "translation" : [
                2.1844067573547363,
                -2.1427314281463623,
                0
            ]
        },
        {
            "mesh" : 3,
            "name" : "NurbsPath",
            "rotation" : [
                0,
                0.3826834559440613,
                0,
                0.9238795638084412
            ],
            "translation" : [
                0,
                22.915708541870117,
                0
            ]
        },
        {
            "name" : "Empty",
            "translation" : [
                0,
                22.915708541870117,
                0
            ]
        },
        {
            "mesh" : 4,
            "name" : "Sphere.001",
            "scale" : [
                19.618932723999023,
                15.933831214904785,
                19.618932723999023
            ],
            "translation" : [
                0,
                7.079587936401367,
                0
            ]
        }
    ],
    "materials" : [
        {
            "doubleSided" : true,
            "name" : "Material",
            "pbrMetallicRoughness" : {
                "baseColorFactor" : [
                    0.36348894238471985,
                    0.13089241087436676,
                    0.02970132976770401,
                    1
                ],
                "metallicFactor" : 0,
                "roughnessFactor" : 0.8900414705276489
            }
        },
        {
            "doubleSided" : true,
            "name" : "Material.001",
            "pbrMetallicRoughness" : {
                "baseColorFactor" : [
                    0.45982635021209717,
                    0.24177029728889465,
                    0.9115681052207947,
                    1
                ],
                "metallicFactor" : 0.2697095274925232,
                "roughnessFactor" : 0.3423236608505249
            }
        },
        {
            "doubleSided" : true,
            "name" : "Material.002",
            "pbrMetallicRoughness" : {
                "baseColorFactor" : [
                    0.029993746429681778,
                    0.01317182369530201,
                    0.046396829187870026,
                    1
                ],
                "metallicFactor" : 0,
                "roughnessFactor" : 0.8900414705276489
            }
        }
    ],
    "meshes" : [
        {
            "name" : "Torus",
            "primitives" : [
                {
                    "attributes" : {
                        "POSITION" : 0,
                        "NORMAL" : 1,
                        "TEXCOORD_0" : 2
                    },
                    "indices" : 3,
                    "material" : 0
                }
            ]
        },
        {
            "name" : "Sphere.002",
            "primitives" : [
                {
                    "attributes" : {
                        "POSITION" : 4,
                        "NORMAL" : 5,
                        "TEXCOORD_0" : 6
                    },
                    "indices" : 7,
                    "material" : 1
                }
            ]
        },
        {
            "name" : "Torus.001",
            "primitives" : [
                {
                    "attributes" : {
                        "POSITION" : 8,
                        "NORMAL" : 9,
                        "TEXCOORD_0" : 10
                    },
                    "indices" : 11,
                    "material" : 2
                }
            ]
        },
        {
            "name" : "NurbsPath",
            "primitives" : [
                {
                    "attributes" : {
                        "POSITION" : 12,
                        "NORMAL" : 13,
                        "TEXCOORD_0" : 14
                    },
                    "indices" : 15,
                    "material" : 2
                }
            ]
        },
        {
            "name" : "Sphere.004",
            "primitives" : [
                {
                    "attributes" : {
                        "POSITION" : 16,
                        "NORMAL" : 17,
                        "TEXCOORD_0" : 18
                    },
                    "indices" : 19,
                    "material" : 1
                }
            ]
        }
    ],
    "accessors" : [
        {
            "bufferView" : 0,
            "componentType" : 5126,
            "count" : 859,
            "max" : [
                1.2500396966934204,
                0.2501383125782013,
                1.25
            ],
            "min" : [
                -1.250135898590088,
                -0.25013935565948486,
                -12.865042686462402
            ],
            "type" : "VEC3"
        },
        {
            "bufferView" : 1,
            "componentType" : 5126,
            "count" : 859,
            "type" : "VEC3"
        },
        {
            "bufferView" : 2,
            "componentType" : 5126,
            "count" : 859,
            "type" : "VEC2"
        },
        {
            "bufferView" : 3,
            "componentType" : 5123,
            "count" : 4128,
            "type" : "SCALAR"
        },
        {
            "bufferView" : 4,
            "componentType" : 5126,
            "count" : 582,
            "max" : [
                0.8464555144309998,
                1,
                0.8464555740356445
            ],
            "min" : [
                -0.8464553356170654,
                0.37646710872650146,
                -0.8464552760124207
            ],
            "type" : "VEC3"
        },
        {
            "bufferView" : 5,
            "componentType" : 5126,
            "count" : 582,
            "type" : "VEC3"
        },
        {
            "bufferView" : 6,
            "componentType" : 5126,
            "count" : 582,
            "type" : "VEC2"
        },
        {
            "bufferView" : 7,
            "componentType" : 5123,
            "count" : 2784,
            "type" : "SCALAR"
        },
        {
            "bufferView" : 8,
            "componentType" : 5126,
            "count" : 657,
            "max" : [
                1.1191476583480835,
                0.24991078674793243,
                1.2095764875411987
            ],
            "min" : [
                -1.2460689544677734,
                -0.25483307242393494,
                -0.5767529010772705
            ],
            "type" : "VEC3"
        },
        {
            "bufferView" : 9,
            "componentType" : 5126,
            "count" : 657,
            "type" : "VEC3"
        },
        {
            "bufferView" : 10,
            "componentType" : 5126,
            "count" : 657,
            "type" : "VEC2"
        },
        {
            "bufferView" : 11,
            "componentType" : 5123,
            "count" : 3354,
            "type" : "SCALAR"
        },
        {
            "bufferView" : 12,
            "componentType" : 5126,
            "count" : 4384,
            "max" : [
                16.563922882080078,
                -0.2978820204734802,
                16.56392478942871
            ],
            "min" : [
                -16.563926696777344,
                -10.072517395019531,
                -16.563928604125977
            ],
            "type" : "VEC3"
        },
        {
            "bufferView" : 13,
            "componentType" : 5126,
            "count" : 4384,
            "type" : "VEC3"
        },
        {
            "bufferView" : 14,
            "componentType" : 5126,
            "count" : 4384,
            "type" : "VEC2"
        },
        {
            "bufferView" : 15,
            "componentType" : 5123,
            "count" : 22944,
            "type" : "SCALAR"
        },
        {
            "bufferView" : 16,
            "componentType" : 5126,
            "count" : 213,
            "max" : [
                0.8535535931587219,
                1,
                0.8535536527633667
            ],
            "min" : [
                -0.8535534143447876,
                0.3826834261417389,
                -0.8535533547401428
            ],
            "type" : "VEC3"
        },
        {
            "bufferView" : 17,
            "componentType" : 5126,
            "count" : 213,
            "type" : "VEC3"
        },
        {
            "bufferView" : 18,
            "componentType" : 5126,
            "count" : 213,
            "type" : "VEC2"
        },
        {
            "bufferView" : 19,
            "componentType" : 5123,
            "count" : 792,
            "type" : "SCALAR"
        }
    ],
    "bufferViews" : [
        {
            "buffer" : 0,
            "byteLength" : 10308,
            "byteOffset" : 0
        },
        {
            "buffer" : 0,
            "byteLength" : 10308,
            "byteOffset" : 10308
        },
        {
            "buffer" : 0,
            "byteLength" : 6872,
            "byteOffset" : 20616
        },
        {
            "buffer" : 0,
            "byteLength" : 8256,
            "byteOffset" : 27488
        },
        {
            "buffer" : 0,
            "byteLength" : 6984,
            "byteOffset" : 35744
        },
        {
            "buffer" : 0,
            "byteLength" : 6984,
            "byteOffset" : 42728
        },
        {
            "buffer" : 0,
            "byteLength" : 4656,
            "byteOffset" : 49712
        },
        {
            "buffer" : 0,
            "byteLength" : 5568,
            "byteOffset" : 54368
        },
        {
            "buffer" : 0,
            "byteLength" : 7884,
            "byteOffset" : 59936
        },
        {
            "buffer" : 0,
            "byteLength" : 7884,
            "byteOffset" : 67820
        },
        {
            "buffer" : 0,
            "byteLength" : 5256,
            "byteOffset" : 75704
        },
        {
            "buffer" : 0,
            "byteLength" : 6708,
            "byteOffset" : 80960
        },
        {
            "buffer" : 0,
            "byteLength" : 52608,
            "byteOffset" : 87668
        },
        {
            "buffer" : 0,
            "byteLength" : 52608,
            "byteOffset" : 140276
        },
        {
            "buffer" : 0,
            "byteLength" : 35072,
            "byteOffset" : 192884
        },
        {
            "buffer" : 0,
            "byteLength" : 45888,
            "byteOffset" : 227956
        },
        {
            "buffer" : 0,
            "byteLength" : 2556,
            "byteOffset" : 273844
        },
        {
            "buffer" : 0,
            "byteLength" : 2556,
            "byteOffset" : 276400
        },
        {
            "buffer" : 0,
            "byteLength" : 1704,
            "byteOffset" : 278956
        },
        {
            "buffer" : 0,
            "byteLength" : 1584,
            "byteOffset" : 280660
        }
    ],
    "buffers" : [
        {
            "byteLength" : 282244,
            "uri" : "data:application/octet-stream;base64,"
        }
    ]
}
